<svg version="1.1" xmlns="http://www.w3.org/2000/svg" xmlns:xlink="http://www.w3.org/1999/xlink" width="400" height="164" viewBox="0 0 400 164">
<style type="text/css">
	.st0{fill:#2C6292;}
	.st1{fill:#CACBD6;}
	.st2{fill:#A0A4B7;}
	.st3{fill:#1D2141;}
	.st4{fill:#191F43;}
	.st5{fill:#C47702;}
	.st6{fill:url(#SVGID_1_);}
	.st7{fill:url(#SVGID_2_);}
	.st8{fill:#F19100;}
	.st9{fill:#2F435A;}
	.st10{fill:#448DCE;}
	.st11{fill:url(#SVGID_3_);}
	.st12{fill:url(#SVGID_4_);}
	.st13{fill:url(#SVGID_5_);}
	.st14{fill:url(#SVGID_6_);}
	.st15{opacity:0.33;fill:#F2F2F5;}
	.st16{fill:#0F222C;}
	.st17{fill:#519BDD;}
	.st18{fill:url(#SVGID_7_);}
	.st19{opacity:0.62;fill:none;stroke:#FFFFFF;stroke-width:2;stroke-linecap:round;stroke-miterlimit:10;}
</style>
<path class="st0" d="M244.6,87.7V3.3c0-1.8-2.1-3.3-4.7-3.3h-11.8l-3.4,2.6v85.1H244.6z"/>
<path class="st1" d="M228.1,99.6H245V79.9h-16.9V99.6z"/>
<path class="st2" d="M245,97h-16v14h16V97z"/>
<path class="st3" d="M60.9,120.6h-3.2v30.1h3.2V120.6z"/>
<path class="st4" d="M257,110.5H36.8v19.5H257V110.5z"/>
<path class="st3" d="M65.4,138.6c0-15.6,13-28.2,29.1-28.2s29.1,12.6,29.1,28.2"/>
<path class="st5" d="M229.5,79l19.5,6v-9.5L229.5,68l-0.5,8.1L229.5,79z"/>
<linearGradient id="SVGID_1_" gradientUnits="userSpaceOnUse" x1="127" y1="156.5234" x2="127" y2="21.136" gradientTransform="matrix(1 0 0 -1 0 166)">
	<stop  offset="7.689310e-07" style="stop-color:#448DCE"/>
	<stop  offset="1" style="stop-color:#2C6292"/>
</linearGradient>
<path class="st6" d="M232.8,88.8l1.1-15.3L234,3.3c0-1.8-2.1-3.3-4.7-3.3H24.7C22.1,0,20,1.5,20,3.3v60.8l4.7,24.7H234H232.8z"/>
<linearGradient id="SVGID_2_" gradientUnits="userSpaceOnUse" x1="127" y1="82.4995" x2="127" y2="12.654" gradientTransform="matrix(1 0 0 -1 0 166)">
	<stop  offset="7.689310e-07" style="stop-color:#F9F9FA"/>
	<stop  offset="1" style="stop-color:#9396AB"/>
</linearGradient>
<path class="st7" d="M20,99.6l214-0.1V78.1L20,72V99.6z"/>
<path class="st1" d="M234,97H20v13h214V97z"/>
<path class="st2" d="M227.4,106.4H26.8c-1.1,0-1.9-0.9-1.9-1.9c0-1.1,0.9-1.9,1.9-1.9h200.6c1.1,0,1.9,0.9,1.9,1.9
	C229.4,105.5,228.5,106.4,227.4,106.4z"/>
<path class="st8" d="M20,73.6c0,0,99.4,4,214,6.4V69.5c0,0-99-2.6-214-5.5V73.6z"/>
<path class="st9" d="M117.6,138.7c0,12.5-10.2,22.7-22.7,22.7c-12.5,0-22.7-10.2-22.7-22.7s10.2-22.8,22.7-22.8
	C107.4,115.9,117.6,126.2,117.6,138.7z"/>
<path class="st10" d="M94.9,151c7.1,0,12.9-5.8,12.9-12.9c0-7.1-5.8-12.9-12.9-12.9c-7.1,0-12.9,5.8-12.9,12.9
	C82,145.2,87.8,151,94.9,151z"/>
<path class="st0" d="M94.9,127.1c6.8,0,12.4,5.3,12.9,11.9c0-0.3,0-0.6,0-0.9c0-7.1-5.8-12.9-12.9-12.9c-7.1,0-12.9,5.8-12.9,12.9
	c0,0.3,0,0.6,0,0.9C82.5,132.4,88.1,127.1,94.9,127.1z"/>
<linearGradient id="SVGID_3_" gradientUnits="userSpaceOnUse" x1="309.876" y1="133.0189" x2="309.876" y2="62.209" gradientTransform="matrix(1 0 0 -1 0 166)">
	<stop  offset="7.689310e-07" style="stop-color:#448DCE"/>
	<stop  offset="1" style="stop-color:#2C6292"/>
</linearGradient>
<path class="st11" d="M239.9,96.7c64.9,1.6,112.4,28.4,112.4,28.4l27.8-1.5l-1.3-22.4c-0.8-10.6-1.7-13.5-17.5-23.9
	c-6.8-4.4-19.2-10.3-26.8-18.2c-10.9-11.5-20.6-22-22.3-23.7c-1.6-1.6-8.4-7.8-19.4-7.8c-14.5,0-48.1,0-48.1,0
	c-2.7,0-4.8,2.2-4.8,4.8l0,7"/>
<linearGradient id="SVGID_4_" gradientUnits="userSpaceOnUse" x1="309.905" y1="77.6406" x2="309.905" y2="4.159" gradientTransform="matrix(1 0 0 -1 0 166)">
	<stop  offset="7.689310e-07" style="stop-color:#F9F9FA"/>
	<stop  offset="1" style="stop-color:#9396AB"/>
</linearGradient>
<path class="st12" d="M239.9,123.8c0,8.6,6.3,15.5,14,15.5l114.4,0c5.6,0,6.4-10.1,11.7-15.7l-30.4,1.5l-17.4-18.5l-10.9-10v-0.1
	l-81.5-19.9L239.9,123.8z"/>
<linearGradient id="SVGID_5_" gradientUnits="userSpaceOnUse" x1="309.9248" y1="-9.486" x2="309.9248" y2="50.56" gradientTransform="matrix(1 0 0 -1 0 166)">
	<stop  offset="7.689310e-07" style="stop-color:#888BA1"/>
	<stop  offset="1" style="stop-color:#B4B7CE"/>
</linearGradient>
<path class="st13" d="M239.9,123.1c0,10.9,6.3,16.2,14.2,16.2h110.6c16.2,0,15.4,1.4,15.4-16.2H239.9z"/>
<linearGradient id="SVGID_6_" gradientUnits="userSpaceOnUse" x1="312.179" y1="26.956" x2="312.179" y2="31.275" gradientTransform="matrix(1 0 0 -1 0 166)">
	<stop  offset="0" style="stop-color:#808FA9"/>
	<stop  offset="1" style="stop-color:#B4B7CE;stop-opacity:0"/>
</linearGradient>
<path class="st14" d="M379.2,136.3H245.1c0,0,3.3,3,7.6,3c4.3,0,122.4,0,122.4,0C376.9,139.3,378.5,138.2,379.2,136.3z"/>
<path class="st15" d="M379,136.8H245.7l-1.2-1h134.9L379,136.8z"/>
<path class="st16" d="M378.2,97.4h-18.6c-1.5,0-2.6,1.5-2,2.9l2.1,5c1,2.4,3.4,4,6,4l11.9,0l1.5,0
	C379.2,109.4,379.4,101.1,378.2,97.4z"/>
<path class="st16" d="M256.5,36.6l56.7,0l37.6,34.7l-87,0c-6.5,0-11.7-5.2-11.7-11.7V40.9C252.1,38.5,254.1,36.6,256.5,36.6z"/>
<path class="st3" d="M314.8,78c1.2,0,2.2-1,2.2-2.2v-5h-6.7v2.7C310.3,75.9,312.3,78,314.8,78z"/>
<path class="st0" d="M310.3,71.3h6.7V68h-6.7V71.3z"/>
<path class="st17" d="M310.3,68h6.7v-1.3c0-1.1-0.9-2.1-2.1-2.1h-2.6c-1.1,0-2.1,0.9-2.1,2.1L310.3,68L310.3,68z"/>
<path class="st3" d="M321.3,73.8c0,3-2.5,5.5-5.5,5.5s-5.5-2.5-5.5-5.5"/>
<path class="st8" d="M239.8,72.1c0,0,104.1,8.1,121.1,51h-11.3c0,0-9.1-31-109.8-40.7V72.1z"/>
<linearGradient id="SVGID_7_" gradientUnits="userSpaceOnUse" x1="322.5114" y1="62.108" x2="322.5114" y2="13.681" gradientTransform="matrix(1 0 0 -1 0 166)">
	<stop  offset="7.689310e-07" style="stop-color:#F9F9FA"/>
	<stop  offset="1" style="stop-color:#9396AB"/>
</linearGradient>
<path class="st18" d="M348.5,120.6c-4.3-11.3-14.3-17.4-25.8-17.4c-10.4,0-22.2,5.7-26.5,16.4c-2.9,7.3-2.1,16.2,2.2,16.2
	c9.7,0,47,0.2,47,0.2S354.4,135.9,348.5,120.6z"/>
<path class="st19" d="M252.1,75.4v45c0,2.7,1.9,4.8,4.3,4.8h28.2c2.1,0,3.9-1.7,4.3-3.9l17.7-21.6c0.4-2.5,1.7-4.7,3.6-6.2
	c2.3-1.9,12.4-4.8,12.4-8v-5.8"/>
<path class="st3" d="M292.6,139.3c0-16,13.4-29,29.9-29c16.5,0,29.9,13,29.9,29"/>
<path class="st9" d="M345.7,138.6c0,12.5-10.2,22.7-22.7,22.7c-12.5,0-22.7-10.2-22.7-22.7c0-12.5,10.2-22.8,22.7-22.8
	C335.5,115.8,345.7,126.1,345.7,138.6z"/>
<path class="st10" d="M323,150.9c7.1,0,12.9-5.8,12.9-12.9c0-7.1-5.8-12.9-12.9-12.9c-7.1,0-12.9,5.8-12.9,12.9
	C310.1,145.2,315.8,150.9,323,150.9z"/>
<path class="st0" d="M323,127c6.8,0,12.4,5.3,12.9,11.9c0-0.3,0-0.6,0-0.9c0-7.1-5.8-12.9-12.9-12.9c-7.1,0-12.9,5.8-12.9,12.9
	c0,0.3,0,0.6,0,0.9C310.6,132.3,316.2,127,323,127z"/>
</svg>
